# xmcd
#
# Track frame offsets: 
#        150
#        18779
#        50899
#        69166
#        91050
#        129186
#        142701
#        155472
#        172779
#        191948
#        215973
#        259706
#        275835
#        296906
#        311374
#
# Disc length: 4414 seconds
#
# Revision: 0
# Processed by: cddbd v1.5.2PL0 Copyright (c) Steve Scherf et al.
# Submitted via: ExactAudioCopy v0.99pb4
#
DISCID=d7113c0f
DTITLE=Various Artist - Blues 1
DYEAR=2001
DGENRE=Blues
TTITLE0=Albert Collins - I ain't drunk (126 bpm)
TTITLE1=Eric Clapton - Further on up the road (live) (135 bpm)
TTITLE2=Etta James - Baby what you want me to do (102 bpm)
TTITLE3=George Thorogood - Bad to the bone (98 bpm)
TTITLE4=George Thorogood - One bourbon, one scotch, one beer (153/134 
TTITLE4=bpm)
TTITLE5=George Thorogood - Treat her right (180 bpm)
TTITLE6=J. Geils band - Wammer jammer (live) (111 bpm)
TTITLE7=John Lee Hppker feat Carlos Santana - The Healer (107 bpm)
TTITLE8=Little Milton - The Blues is alright (130 bpm)
TTITLE9=Low Budget blues band - Everybody wants to go to heaven (58 bp
TTITLE9=m)
TTITLE10=Rolling Stones - Fancy man blues (88 bpm)
TTITLE11=Serious Trouble - You ain't nothing but trouble (135 bpm)
TTITLE12=Terence Trent d'Arby - I'll be alright (e-edit 120 bpm)
TTITLE13=tropper Headon - Leave it to luck (122 bpm)
TTITLE14=Van Morrison - Going down to geneva (116 bpm)
EXTD=Sammanställning av DJ Enoc,
EXTT0=
EXTT1=
EXTT2=
EXTT3=
EXTT4=
EXTT5=
EXTT6=
EXTT7=
EXTT8=
EXTT9=
EXTT10=
EXTT11=
EXTT12=
EXTT13=
EXTT14=
PLAYORDER=
